<svg width="31" height="31" viewBox="0 0 31 31" fill="none" xmlns="http://www.w3.org/2000/svg">
<path fill-rule="evenodd" clip-rule="evenodd" d="M15.5 3.875C12.3426 3.875 11.9474 3.88818 10.7074 3.94475C9.46972 4.00132 8.6242 4.19817 7.88485 4.4857C7.10985 4.7771 6.40692 5.23435 5.82567 5.82645C5.23452 6.40703 4.77699 7.10946 4.48492 7.88485C4.19895 8.6242 4.00132 9.4705 3.94475 10.7082C3.88895 11.9474 3.875 12.3419 3.875 15.5C3.875 18.6581 3.88818 19.0526 3.94475 20.2926C4.00132 21.5303 4.19817 22.3758 4.4857 23.1151C4.7771 23.8901 5.23435 24.5931 5.82645 25.1743C6.40704 25.7655 7.10947 26.223 7.88485 26.5151C8.6242 26.8018 9.46972 26.9987 10.7074 27.0552C11.9474 27.1118 12.3426 27.125 15.5 27.125C18.6573 27.125 19.0526 27.1118 20.2926 27.0552C21.5303 26.9987 22.3758 26.8018 23.1151 26.5143C23.8901 26.2229 24.5931 25.7656 25.1743 25.1735C25.7655 24.593 26.223 23.8905 26.5151 23.1151C26.8018 22.3758 26.9987 21.5303 27.0552 20.2926C27.1118 19.0526 27.125 18.6573 27.125 15.5C27.125 12.3426 27.1118 11.9474 27.0552 10.7074C26.9987 9.46972 26.8018 8.6242 26.5143 7.88485C26.2224 7.10912 25.7649 6.4064 25.1735 5.82567C24.593 5.23452 23.8905 4.77699 23.1151 4.48492C22.3758 4.19895 21.5295 4.00132 20.2918 3.94475C19.0526 3.88895 18.6581 3.875 15.5 3.875ZM15.5 5.96982C18.6039 5.96982 18.972 5.98145 20.198 6.03725C21.3311 6.08917 21.9464 6.2775 22.3564 6.43792C22.8989 6.64795 23.2864 6.9006 23.6933 7.3067C24.1002 7.71357 24.352 8.10107 24.5621 8.64357C24.7217 9.05355 24.9108 9.6689 24.9627 10.8019C25.0185 12.028 25.0302 12.3961 25.0302 15.5C25.0302 18.6039 25.0185 18.972 24.9627 20.198C24.9108 21.3311 24.7225 21.9464 24.5621 22.3564C24.376 22.8614 24.0792 23.3182 23.6933 23.6933C23.3183 24.0792 22.8614 24.3761 22.3564 24.5621C21.9464 24.7217 21.3311 24.9108 20.198 24.9627C18.972 25.0185 18.6046 25.0302 15.5 25.0302C12.3953 25.0302 12.028 25.0185 10.8019 24.9627C9.6689 24.9108 9.05355 24.7225 8.64357 24.5621C8.13863 24.376 7.6818 24.0792 7.3067 23.6933C6.92089 23.3182 6.62402 22.8613 6.43792 22.3564C6.27827 21.9464 6.08917 21.3311 6.03725 20.198C5.98145 18.972 5.96982 18.6039 5.96982 15.5C5.96982 12.3961 5.98145 12.028 6.03725 10.8019C6.08917 9.6689 6.2775 9.05355 6.43792 8.64357C6.64795 8.10107 6.9006 7.71357 7.3067 7.3067C7.68175 6.92078 8.13859 6.62391 8.64357 6.43792C9.05355 6.27827 9.6689 6.08917 10.8019 6.03725C12.028 5.98145 12.3961 5.96982 15.5 5.96982V5.96982Z" fill="black"/>
<path fill-rule="evenodd" clip-rule="evenodd" d="M15.5002 19.3789C14.9908 19.3789 14.4864 19.2785 14.0158 19.0836C13.5452 18.8887 13.1176 18.603 12.7574 18.2428C12.3972 17.8826 12.1115 17.455 11.9165 16.9844C11.7216 16.5138 11.6213 16.0094 11.6213 15.5C11.6213 14.9906 11.7216 14.4862 11.9165 14.0156C12.1115 13.545 12.3972 13.1174 12.7574 12.7572C13.1176 12.397 13.5452 12.1113 14.0158 11.9164C14.4864 11.7215 14.9908 11.6211 15.5002 11.6211C16.5289 11.6211 17.5155 12.0298 18.2429 12.7572C18.9704 13.4846 19.379 14.4713 19.379 15.5C19.379 16.5287 18.9704 17.5153 18.2429 18.2428C17.5155 18.9702 16.5289 19.3789 15.5002 19.3789V19.3789ZM15.5002 9.52475C13.9154 9.52475 12.3956 10.1543 11.275 11.2749C10.1544 12.3954 9.5249 13.9153 9.5249 15.5C9.5249 17.0847 10.1544 18.6046 11.275 19.7251C12.3956 20.8457 13.9154 21.4752 15.5002 21.4752C17.0849 21.4752 18.6047 20.8457 19.7253 19.7251C20.8459 18.6046 21.4754 17.0847 21.4754 15.5C21.4754 13.9153 20.8459 12.3954 19.7253 11.2749C18.6047 10.1543 17.0849 9.52475 15.5002 9.52475V9.52475ZM23.2137 9.41625C23.2137 9.79085 23.0649 10.1501 22.8 10.415C22.5351 10.6799 22.1759 10.8287 21.8013 10.8287C21.4267 10.8287 21.0674 10.6799 20.8025 10.415C20.5377 10.1501 20.3888 9.79085 20.3888 9.41625C20.3888 9.04165 20.5377 8.68239 20.8025 8.4175C21.0674 8.15262 21.4267 8.00381 21.8013 8.00381C22.1759 8.00381 22.5351 8.15262 22.8 8.4175C23.0649 8.68239 23.2137 9.04165 23.2137 9.41625" fill="black"/>
</svg>
