<svg width="32" height="31" viewBox="0 0 32 31" fill="none" xmlns="http://www.w3.org/2000/svg">
<path fill-rule="evenodd" clip-rule="evenodd" d="M15.9587 2.90198C8.8222 2.90198 3.04199 8.68219 3.04199 15.8186C3.04199 21.5343 6.73939 26.3619 11.8738 28.0733C12.5196 28.1864 12.7618 27.7989 12.7618 27.4598C12.7618 27.153 12.7456 26.1358 12.7456 25.0541C9.50033 25.6515 8.66074 24.2629 8.40241 23.5364C8.2571 23.165 7.62741 22.0186 7.07845 21.7119C6.62637 21.4697 5.98053 20.8723 7.0623 20.8561C8.07949 20.84 8.80605 21.7926 9.04824 22.1801C10.2107 24.1337 12.0675 23.5848 12.8102 23.2457C12.9232 22.4061 13.2623 21.841 13.6337 21.5181C10.7597 21.1952 7.75658 20.0811 7.75658 15.1405C7.75658 13.7358 8.2571 12.5733 9.08053 11.6692C8.95137 11.3462 8.49928 10.0223 9.2097 8.24625C9.2097 8.24625 10.2915 7.90719 12.7618 9.57021C13.7951 9.27958 14.893 9.13427 15.991 9.13427C17.0889 9.13427 18.1868 9.27958 19.2201 9.57021C21.6904 7.89104 22.7722 8.24625 22.7722 8.24625C23.4826 10.0223 23.0305 11.3462 22.9014 11.6692C23.7248 12.5733 24.2253 13.7197 24.2253 15.1405C24.2253 20.0973 21.2061 21.1952 18.3321 21.5181C18.8003 21.9218 19.204 22.6968 19.204 23.9077C19.204 25.6353 19.1878 27.0239 19.1878 27.4598C19.1878 27.7989 19.43 28.2025 20.0758 28.0733C22.64 27.2077 24.8682 25.5597 26.4467 23.3614C28.0252 21.163 28.8746 18.525 28.8753 15.8186C28.8753 8.68219 23.0951 2.90198 15.9587 2.90198Z" fill="black"/>
</svg>
