<svg width="32" height="31" viewBox="0 0 32 31" fill="none" xmlns="http://www.w3.org/2000/svg">
<path d="M28.0415 5.58456V25.4154C28.0415 25.8688 27.8614 26.3037 27.5408 26.6243C27.2202 26.9449 26.7853 27.125 26.3319 27.125H6.50106C6.04766 27.125 5.61283 26.9449 5.29222 26.6243C4.97162 26.3037 4.7915 25.8688 4.7915 25.4154V5.58456C4.7915 5.13116 4.97162 4.69632 5.29222 4.37572C5.61283 4.05511 6.04766 3.875 6.50106 3.875L26.3319 3.875C26.7853 3.875 27.2202 4.05511 27.5408 4.37572C27.8614 4.69632 28.0415 5.13116 28.0415 5.58456V5.58456ZM11.6297 12.7647H8.21062V23.7059H11.6297V12.7647ZM11.9375 9.00368C11.9393 8.74505 11.8901 8.4886 11.7928 8.24897C11.6955 8.00934 11.5519 7.79122 11.3703 7.60707C11.1887 7.42292 10.9726 7.27635 10.7344 7.17572C10.4961 7.07509 10.2404 7.02238 9.98172 7.02059H9.92018C9.39423 7.02059 8.88983 7.22952 8.51793 7.60142C8.14602 7.97332 7.93709 8.47773 7.93709 9.00368C7.93709 9.52962 8.14602 10.034 8.51793 10.4059C8.88983 10.7778 9.39423 10.9868 9.92018 10.9868V10.9868C10.1788 10.9931 10.4362 10.9485 10.6776 10.8553C10.919 10.7622 11.1396 10.6224 11.327 10.444C11.5143 10.2655 11.6646 10.0519 11.7694 9.81533C11.8741 9.57876 11.9312 9.32387 11.9375 9.06522V9.00368ZM24.6224 17.0591C24.6224 13.7699 22.5299 12.4912 20.4511 12.4912C19.7704 12.4571 19.0927 12.6021 18.4856 12.9116C17.8785 13.2212 17.3631 13.6845 16.9909 14.2554H16.8952V12.7647H13.6812V23.7059H17.1003V17.8865C17.0509 17.2905 17.2386 16.6991 17.6228 16.2407C18.0069 15.7824 18.5563 15.4941 19.1518 15.4385H19.2817C20.369 15.4385 21.1759 16.1223 21.1759 17.8455V23.7059H24.595L24.6224 17.0591Z" fill="black"/>
</svg>
