<svg width="25" height="25" viewBox="0 0 25 25" fill="none" xmlns="http://www.w3.org/2000/svg">
<path d="M24.0416 2.58456V22.4154C24.0416 22.8688 23.8615 23.3037 23.5409 23.6243C23.2203 23.9449 22.7855 24.125 22.3321 24.125H2.50118C2.04778 24.125 1.61295 23.9449 1.29234 23.6243C0.97174 23.3037 0.791626 22.8688 0.791626 22.4154L0.791626 2.58456C0.791626 2.13116 0.97174 1.69632 1.29234 1.37572C1.61295 1.05511 2.04778 0.875 2.50118 0.875L22.3321 0.875C22.7855 0.875 23.2203 1.05511 23.5409 1.37572C23.8615 1.69632 24.0416 2.13116 24.0416 2.58456V2.58456ZM7.62986 9.76471H4.21074V20.7059H7.62986V9.76471ZM7.93758 6.00368C7.93938 5.74505 7.89023 5.4886 7.79292 5.24897C7.69561 5.00934 7.55205 4.79122 7.37044 4.60707C7.18883 4.42292 6.97273 4.27635 6.73447 4.17572C6.49622 4.07509 6.24048 4.02238 5.98185 4.02059H5.9203C5.39435 4.02059 4.88995 4.22952 4.51805 4.60142C4.14615 4.97332 3.93721 5.47773 3.93721 6.00368C3.93721 6.52962 4.14615 7.03403 4.51805 7.40593C4.88995 7.77783 5.39435 7.98676 5.9203 7.98676V7.98676C6.17895 7.99313 6.43631 7.94846 6.67769 7.85533C6.91907 7.76219 7.13974 7.62241 7.32707 7.44396C7.51441 7.26551 7.66475 7.0519 7.7695 6.81533C7.87426 6.57876 7.93137 6.32387 7.93758 6.06522V6.00368ZM20.6225 14.0591C20.6225 10.7699 18.53 9.49118 16.4512 9.49118C15.7705 9.45709 15.0928 9.60207 14.4857 9.91163C13.8786 10.2212 13.3632 10.6845 12.991 11.2554H12.8953V9.76471H9.68133V20.7059H13.1004V14.8865C13.051 14.2905 13.2388 13.6991 13.6229 13.2407C14.007 12.7824 14.5565 12.4941 15.1519 12.4385H15.2818C16.3691 12.4385 17.176 13.1223 17.176 14.8455V20.7059H20.5952L20.6225 14.0591Z" fill="black"/>
</svg>
