<svg width="15" height="14" viewBox="0 0 15 14" fill="none" xmlns="http://www.w3.org/2000/svg">
<path fill-rule="evenodd" clip-rule="evenodd" d="M6.50015 11.379C5.99077 11.379 5.48638 11.2786 5.01577 11.0837C4.54516 10.8888 4.11756 10.6031 3.75737 10.2429C3.39719 9.88269 3.11147 9.45508 2.91654 8.98448C2.72161 8.51387 2.62128 8.00948 2.62128 7.50009C2.62128 6.99071 2.72161 6.48632 2.91654 6.01571C3.11147 5.54511 3.39719 5.1175 3.75737 4.75732C4.11756 4.39713 4.54516 4.11141 5.01577 3.91648C5.48638 3.72155 5.99077 3.62122 6.50015 3.62122C7.52889 3.62122 8.5155 4.02988 9.24293 4.75732C9.97036 5.48475 10.379 6.47135 10.379 7.50009C10.379 8.52884 9.97036 9.51544 9.24293 10.2429C8.5155 10.9703 7.52889 11.379 6.50015 11.379V11.379ZM6.50015 1.52484C4.91542 1.52484 3.39559 2.15438 2.27501 3.27495C1.15444 4.39553 0.524902 5.91536 0.524902 7.50009C0.524902 9.08483 1.15444 10.6047 2.27501 11.7252C3.39559 12.8458 4.91542 13.4753 6.50015 13.4753C8.08488 13.4753 9.60471 12.8458 10.7253 11.7252C11.8459 10.6047 12.4754 9.08483 12.4754 7.50009C12.4754 5.91536 11.8459 4.39553 10.7253 3.27495C9.60471 2.15438 8.08488 1.52484 6.50015 1.52484V1.52484ZM14.2137 1.41634C14.2137 1.79095 14.0649 2.1502 13.8 2.41509C13.5351 2.67997 13.1759 2.82878 12.8013 2.82878C12.4267 2.82878 12.0674 2.67997 11.8025 2.41509C11.5377 2.1502 11.3888 1.79095 11.3888 1.41634C11.3888 1.04174 11.5377 0.682483 11.8025 0.4176C12.0674 0.152716 12.4267 0.00390625 12.8013 0.00390625C13.1759 0.00390625 13.5351 0.152716 13.8 0.4176C14.0649 0.682483 14.2137 1.04174 14.2137 1.41634" fill="black"/>
</svg>
