<svg width="26" height="27" viewBox="0 0 26 27" fill="none" xmlns="http://www.w3.org/2000/svg">
<path fill-rule="evenodd" clip-rule="evenodd" d="M12.9584 0.901978C5.82196 0.901978 0.041748 6.68219 0.041748 13.8186C0.041748 19.5343 3.73914 24.3619 8.87352 26.0733C9.51935 26.1864 9.76154 25.7989 9.76154 25.4598C9.76154 25.153 9.74539 24.1358 9.74539 23.0541C6.50008 23.6515 5.6605 22.2629 5.40216 21.5364C5.25685 21.165 4.62716 20.0186 4.07821 19.7119C3.62612 19.4697 2.98029 18.8723 4.06206 18.8561C5.07925 18.84 5.80581 19.7926 6.048 20.1801C7.2105 22.1337 9.06727 21.5848 9.80998 21.2457C9.923 20.4061 10.2621 19.841 10.6334 19.5181C7.75946 19.1952 4.75633 18.0811 4.75633 13.1405C4.75633 11.7358 5.25685 10.5733 6.08029 9.66916C5.95112 9.34625 5.49904 8.02229 6.20946 6.24625C6.20946 6.24625 7.29123 5.90719 9.76154 7.57021C10.7949 7.27958 11.8928 7.13427 12.9907 7.13427C14.0886 7.13427 15.1865 7.27958 16.2199 7.57021C18.6902 5.89104 19.772 6.24625 19.772 6.24625C20.4824 8.02229 20.0303 9.34625 19.9011 9.66916C20.7246 10.5733 21.2251 11.7197 21.2251 13.1405C21.2251 18.0973 18.2058 19.1952 15.3319 19.5181C15.8001 19.9218 16.2037 20.6968 16.2037 21.9077C16.2037 23.6353 16.1876 25.0239 16.1876 25.4598C16.1876 25.7989 16.4298 26.2025 17.0756 26.0733C19.6398 25.2077 21.868 23.5597 23.4465 21.3614C25.025 19.163 25.8744 16.525 25.8751 13.8186C25.8751 6.68219 20.0949 0.901978 12.9584 0.901978Z" fill="black"/>
</svg>
