<svg width="15" height="14" viewBox="0 0 15 14" fill="none" xmlns="http://www.w3.org/2000/svg">
<path fill-rule="evenodd" clip-rule="evenodd" d="M6.50015 11.3788C5.99077 11.3788 5.48638 11.2785 5.01577 11.0836C4.54516 10.8887 4.11756 10.6029 3.75737 10.2428C3.39719 9.88256 3.11147 9.45496 2.91654 8.98435C2.72161 8.51375 2.62128 8.00935 2.62128 7.49997C2.62128 6.99059 2.72161 6.4862 2.91654 6.01559C3.11147 5.54498 3.39719 5.11738 3.75737 4.75719C4.11756 4.39701 4.54516 4.11129 5.01577 3.91636C5.48638 3.72143 5.99077 3.6211 6.50015 3.6211C7.52889 3.6211 8.5155 4.02976 9.24293 4.75719C9.97036 5.48462 10.379 6.47123 10.379 7.49997C10.379 8.52871 9.97036 9.51532 9.24293 10.2428C8.5155 10.9702 7.52889 11.3788 6.50015 11.3788V11.3788ZM6.50015 1.52472C4.91542 1.52472 3.39559 2.15425 2.27501 3.27483C1.15444 4.39541 0.524902 5.91524 0.524902 7.49997C0.524902 9.08471 1.15444 10.6045 2.27501 11.7251C3.39559 12.8457 4.91542 13.4752 6.50015 13.4752C8.08488 13.4752 9.60471 12.8457 10.7253 11.7251C11.8459 10.6045 12.4754 9.08471 12.4754 7.49997C12.4754 5.91524 11.8459 4.39541 10.7253 3.27483C9.60471 2.15425 8.08488 1.52472 6.50015 1.52472V1.52472ZM14.2137 1.41622C14.2137 1.79082 14.0649 2.15008 13.8 2.41497C13.5351 2.67985 13.1759 2.82866 12.8013 2.82866C12.4267 2.82866 12.0674 2.67985 11.8025 2.41497C11.5377 2.15008 11.3888 1.79082 11.3888 1.41622C11.3888 1.04162 11.5377 0.682361 11.8025 0.417478C12.0674 0.152594 12.4267 0.00378418 12.8013 0.00378418C13.1759 0.00378418 13.5351 0.152594 13.8 0.417478C14.0649 0.682361 14.2137 1.04162 14.2137 1.41622" fill="black"/>
</svg>
