<svg width="25" height="25" viewBox="0 0 25 25" fill="none" xmlns="http://www.w3.org/2000/svg">
<path fill-rule="evenodd" clip-rule="evenodd" d="M12.5 0.875C9.34265 0.875 8.9474 0.888175 7.7074 0.94475C6.46972 1.00132 5.6242 1.19817 4.88485 1.4857C4.10985 1.7771 3.40692 2.23435 2.82567 2.82645C2.23452 3.40703 1.77699 4.10946 1.48492 4.88485C1.19895 5.6242 1.00132 6.4705 0.94475 7.70818C0.88895 8.9474 0.875 9.34187 0.875 12.5C0.875 15.6581 0.888175 16.0526 0.94475 17.2926C1.00132 18.5303 1.19817 19.3758 1.4857 20.1151C1.7771 20.8901 2.23435 21.5931 2.82645 22.1743C3.40704 22.7655 4.10947 23.223 4.88485 23.5151C5.6242 23.8018 6.46972 23.9987 7.7074 24.0552C8.9474 24.1118 9.34265 24.125 12.5 24.125C15.6573 24.125 16.0526 24.1118 17.2926 24.0552C18.5303 23.9987 19.3758 23.8018 20.1151 23.5143C20.8901 23.2229 21.5931 22.7656 22.1743 22.1735C22.7655 21.593 23.223 20.8905 23.5151 20.1151C23.8018 19.3758 23.9987 18.5303 24.0552 17.2926C24.1118 16.0526 24.125 15.6573 24.125 12.5C24.125 9.34265 24.1118 8.9474 24.0552 7.7074C23.9987 6.46972 23.8018 5.6242 23.5143 4.88485C23.2224 4.10912 22.7649 3.4064 22.1735 2.82567C21.593 2.23452 20.8905 1.77699 20.1151 1.48492C19.3758 1.19895 18.5295 1.00132 17.2918 0.94475C16.0526 0.88895 15.6581 0.875 12.5 0.875ZM12.5 2.96982C15.6039 2.96982 15.972 2.98145 17.198 3.03725C18.3311 3.08917 18.9464 3.2775 19.3564 3.43792C19.8989 3.64795 20.2864 3.9006 20.6933 4.3067C21.1002 4.71357 21.352 5.10107 21.5621 5.64357C21.7217 6.05355 21.9108 6.6689 21.9627 7.80195C22.0185 9.028 22.0302 9.39612 22.0302 12.5C22.0302 15.6039 22.0185 15.972 21.9627 17.198C21.9108 18.3311 21.7225 18.9464 21.5621 19.3564C21.376 19.8614 21.0792 20.3182 20.6933 20.6933C20.3183 21.0792 19.8614 21.3761 19.3564 21.5621C18.9464 21.7217 18.3311 21.9108 17.198 21.9627C15.972 22.0185 15.6046 22.0302 12.5 22.0302C9.39535 22.0302 9.028 22.0185 7.80195 21.9627C6.6689 21.9108 6.05355 21.7225 5.64357 21.5621C5.13863 21.376 4.6818 21.0792 4.3067 20.6933C3.92089 20.3182 3.62402 19.8613 3.43792 19.3564C3.27827 18.9464 3.08917 18.3311 3.03725 17.198C2.98145 15.972 2.96982 15.6039 2.96982 12.5C2.96982 9.39612 2.98145 9.028 3.03725 7.80195C3.08917 6.6689 3.2775 6.05355 3.43792 5.64357C3.64795 5.10107 3.9006 4.71357 4.3067 4.3067C4.68175 3.92078 5.13859 3.62391 5.64357 3.43792C6.05355 3.27827 6.6689 3.08917 7.80195 3.03725C9.028 2.98145 9.39612 2.96982 12.5 2.96982V2.96982Z" fill="black"/>
</svg>
