<svg width="26" height="27" viewBox="0 0 26 27" fill="none" xmlns="http://www.w3.org/2000/svg">
<path fill-rule="evenodd" clip-rule="evenodd" d="M12.9587 0.901978C5.8222 0.901978 0.0419922 6.68219 0.0419922 13.8186C0.0419922 19.5343 3.73939 24.3619 8.87376 26.0733C9.5196 26.1864 9.76178 25.7989 9.76178 25.4598C9.76178 25.153 9.74564 24.1358 9.74564 23.0541C6.50033 23.6515 5.66074 22.2629 5.40241 21.5364C5.2571 21.165 4.62741 20.0186 4.07845 19.7119C3.62637 19.4697 2.98053 18.8723 4.0623 18.8561C5.07949 18.84 5.80605 19.7926 6.04824 20.1801C7.21074 22.1337 9.06751 21.5848 9.81022 21.2457C9.92324 20.4061 10.2623 19.841 10.6337 19.5181C7.7597 19.1952 4.75658 18.0811 4.75658 13.1405C4.75658 11.7358 5.2571 10.5733 6.08053 9.66916C5.95137 9.34625 5.49928 8.02229 6.2097 6.24625C6.2097 6.24625 7.29147 5.90719 9.76178 7.57021C10.7951 7.27958 11.893 7.13427 12.991 7.13427C14.0889 7.13427 15.1868 7.27958 16.2201 7.57021C18.6904 5.89104 19.7722 6.24625 19.7722 6.24625C20.4826 8.02229 20.0305 9.34625 19.9014 9.66916C20.7248 10.5733 21.2253 11.7197 21.2253 13.1405C21.2253 18.0973 18.2061 19.1952 15.3321 19.5181C15.8003 19.9218 16.204 20.6968 16.204 21.9077C16.204 23.6353 16.1878 25.0239 16.1878 25.4598C16.1878 25.7989 16.43 26.2025 17.0758 26.0733C19.64 25.2077 21.8682 23.5597 23.4467 21.3614C25.0252 19.163 25.8746 16.525 25.8753 13.8186C25.8753 6.68219 20.0951 0.901978 12.9587 0.901978Z" fill="black"/>
</svg>
