<svg width="15" height="14" viewBox="0 0 15 14" fill="none" xmlns="http://www.w3.org/2000/svg">
<path fill-rule="evenodd" clip-rule="evenodd" d="M6.50015 11.3789C5.99077 11.3789 5.48638 11.2785 5.01577 11.0836C4.54516 10.8887 4.11756 10.603 3.75737 10.2428C3.39719 9.88259 3.11147 9.45499 2.91654 8.98438C2.72161 8.51378 2.62128 8.00938 2.62128 7.5C2.62128 6.99062 2.72161 6.48623 2.91654 6.01562C3.11147 5.54501 3.39719 5.11741 3.75737 4.75722C4.11756 4.39704 4.54516 4.11132 5.01577 3.91639C5.48638 3.72146 5.99077 3.62113 6.50015 3.62113C7.52889 3.62113 8.5155 4.02979 9.24293 4.75722C9.97036 5.48465 10.379 6.47126 10.379 7.5C10.379 8.52874 9.97036 9.51535 9.24293 10.2428C8.5155 10.9702 7.52889 11.3789 6.50015 11.3789V11.3789ZM6.50015 1.52475C4.91542 1.52475 3.39559 2.15429 2.27501 3.27486C1.15444 4.39544 0.524902 5.91527 0.524902 7.5C0.524902 9.08474 1.15444 10.6046 2.27501 11.7251C3.39559 12.8457 4.91542 13.4753 6.50015 13.4753C8.08488 13.4753 9.60471 12.8457 10.7253 11.7251C11.8459 10.6046 12.4754 9.08474 12.4754 7.5C12.4754 5.91527 11.8459 4.39544 10.7253 3.27486C9.60471 2.15429 8.08488 1.52475 6.50015 1.52475V1.52475ZM14.2137 1.41625C14.2137 1.79085 14.0649 2.15011 13.8 2.415C13.5351 2.67988 13.1759 2.82869 12.8013 2.82869C12.4267 2.82869 12.0674 2.67988 11.8025 2.415C11.5377 2.15011 11.3888 1.79085 11.3888 1.41625C11.3888 1.04165 11.5377 0.682392 11.8025 0.417508C12.0674 0.152625 12.4267 0.0038147 12.8013 0.0038147C13.1759 0.0038147 13.5351 0.152625 13.8 0.417508C14.0649 0.682392 14.2137 1.04165 14.2137 1.41625" fill="black"/>
</svg>
