<svg width="26" height="27" viewBox="0 0 26 27" fill="none" xmlns="http://www.w3.org/2000/svg">
<path fill-rule="evenodd" clip-rule="evenodd" d="M12.9582 0.901978C5.82171 0.901978 0.0415039 6.68219 0.0415039 13.8186C0.0415039 19.5343 3.7389 24.3619 8.87327 26.0733C9.51911 26.1864 9.7613 25.7989 9.7613 25.4598C9.7613 25.153 9.74515 24.1358 9.74515 23.0541C6.49984 23.6515 5.66025 22.2629 5.40192 21.5364C5.25661 21.165 4.62692 20.0186 4.07796 19.7119C3.62588 19.4697 2.98005 18.8723 4.06182 18.8561C5.079 18.84 5.80557 19.7926 6.04775 20.1801C7.21025 22.1337 9.06702 21.5848 9.80973 21.2457C9.92275 20.4061 10.2618 19.841 10.6332 19.5181C7.75921 19.1952 4.75609 18.0811 4.75609 13.1405C4.75609 11.7358 5.25661 10.5733 6.08005 9.66916C5.95088 9.34625 5.4988 8.02229 6.20921 6.24625C6.20921 6.24625 7.29098 5.90719 9.7613 7.57021C10.7946 7.27958 11.8925 7.13427 12.9905 7.13427C14.0884 7.13427 15.1863 7.27958 16.2196 7.57021C18.6899 5.89104 19.7717 6.24625 19.7717 6.24625C20.4821 8.02229 20.03 9.34625 19.9009 9.66916C20.7243 10.5733 21.2248 11.7197 21.2248 13.1405C21.2248 18.0973 18.2056 19.1952 15.3316 19.5181C15.7998 19.9218 16.2035 20.6968 16.2035 21.9077C16.2035 23.6353 16.1873 25.0239 16.1873 25.4598C16.1873 25.7989 16.4295 26.2025 17.0754 26.0733C19.6396 25.2077 21.8677 23.5597 23.4462 21.3614C25.0248 19.163 25.8741 16.525 25.8748 13.8186C25.8748 6.68219 20.0946 0.901978 12.9582 0.901978Z" fill="black"/>
</svg>
