<svg width="25" height="25" viewBox="0 0 25 25" fill="none" xmlns="http://www.w3.org/2000/svg">
<path d="M24.0417 2.58456V22.4154C24.0417 22.8688 23.8616 23.3037 23.541 23.6243C23.2204 23.9449 22.7856 24.125 22.3322 24.125H2.50131C2.0479 24.125 1.61307 23.9449 1.29247 23.6243C0.971862 23.3037 0.791748 22.8688 0.791748 22.4154L0.791748 2.58456C0.791748 2.13116 0.971862 1.69632 1.29247 1.37572C1.61307 1.05511 2.0479 0.875 2.50131 0.875L22.3322 0.875C22.7856 0.875 23.2204 1.05511 23.541 1.37572C23.8616 1.69632 24.0417 2.13116 24.0417 2.58456V2.58456ZM7.62998 9.76471H4.21087V20.7059H7.62998V9.76471ZM7.9377 6.00368C7.93951 5.74505 7.89035 5.4886 7.79304 5.24897C7.69573 5.00934 7.55217 4.79122 7.37056 4.60707C7.18895 4.42292 6.97285 4.27635 6.7346 4.17572C6.49634 4.07509 6.2406 4.02238 5.98197 4.02059H5.92042C5.39448 4.02059 4.89007 4.22952 4.51817 4.60142C4.14627 4.97332 3.93734 5.47773 3.93734 6.00368C3.93734 6.52962 4.14627 7.03403 4.51817 7.40593C4.89007 7.77783 5.39448 7.98676 5.92042 7.98676V7.98676C6.17907 7.99313 6.43644 7.94846 6.67782 7.85533C6.9192 7.76219 7.13986 7.62241 7.3272 7.44396C7.51453 7.26551 7.66487 7.0519 7.76963 6.81533C7.87438 6.57876 7.93149 6.32387 7.9377 6.06522V6.00368ZM20.6226 14.0591C20.6226 10.7699 18.5301 9.49118 16.4513 9.49118C15.7707 9.45709 15.093 9.60207 14.4858 9.91163C13.8787 10.2212 13.3633 10.6845 12.9912 11.2554H12.8954V9.76471H9.68145V20.7059H13.1006V14.8865C13.0511 14.2905 13.2389 13.6991 13.623 13.2407C14.0071 12.7824 14.5566 12.4941 15.152 12.4385H15.282C16.3692 12.4385 17.1762 13.1223 17.1762 14.8455V20.7059H20.5953L20.6226 14.0591Z" fill="black"/>
</svg>
