<svg width="15" height="14" viewBox="0 0 15 14" fill="none" xmlns="http://www.w3.org/2000/svg">
<path fill-rule="evenodd" clip-rule="evenodd" d="M6.50003 11.3789C5.99065 11.3789 5.48625 11.2786 5.01565 11.0836C4.54504 10.8887 4.11744 10.603 3.75725 10.2428C3.39706 9.88263 3.11135 9.45502 2.91642 8.98441C2.72148 8.51381 2.62115 8.00941 2.62115 7.50003C2.62115 6.99065 2.72148 6.48626 2.91642 6.01565C3.11135 5.54504 3.39706 5.11744 3.75725 4.75725C4.11744 4.39707 4.54504 4.11135 5.01565 3.91642C5.48625 3.72149 5.99065 3.62116 6.50003 3.62116C7.52877 3.62116 8.51538 4.02982 9.24281 4.75725C9.97024 5.48468 10.3789 6.47129 10.3789 7.50003C10.3789 8.52877 9.97024 9.51538 9.24281 10.2428C8.51538 10.9702 7.52877 11.3789 6.50003 11.3789V11.3789ZM6.50003 1.52478C4.91529 1.52478 3.39547 2.15432 2.27489 3.27489C1.15431 4.39547 0.52478 5.9153 0.52478 7.50003C0.52478 9.08477 1.15431 10.6046 2.27489 11.7252C3.39547 12.8457 4.91529 13.4753 6.50003 13.4753C8.08476 13.4753 9.60459 12.8457 10.7252 11.7252C11.8457 10.6046 12.4753 9.08477 12.4753 7.50003C12.4753 5.9153 11.8457 4.39547 10.7252 3.27489C9.60459 2.15432 8.08476 1.52478 6.50003 1.52478V1.52478ZM14.2136 1.41628C14.2136 1.79088 14.0648 2.15014 13.7999 2.41503C13.535 2.67991 13.1758 2.82872 12.8012 2.82872C12.4266 2.82872 12.0673 2.67991 11.8024 2.41503C11.5375 2.15014 11.3887 1.79088 11.3887 1.41628C11.3887 1.04168 11.5375 0.682422 11.8024 0.417539C12.0673 0.152655 12.4266 0.00384521 12.8012 0.00384521C13.1758 0.00384521 13.535 0.152655 13.7999 0.417539C14.0648 0.682422 14.2136 1.04168 14.2136 1.41628" fill="black"/>
</svg>
