<svg width="25" height="25" viewBox="0 0 25 25" fill="none" xmlns="http://www.w3.org/2000/svg">
<path d="M24.0415 2.58456V22.4154C24.0415 22.8688 23.8614 23.3037 23.5408 23.6243C23.2202 23.9449 22.7853 24.125 22.3319 24.125H2.50106C2.04766 24.125 1.61283 23.9449 1.29222 23.6243C0.971618 23.3037 0.791504 22.8688 0.791504 22.4154L0.791504 2.58456C0.791504 2.13116 0.971618 1.69632 1.29222 1.37572C1.61283 1.05511 2.04766 0.875 2.50106 0.875L22.3319 0.875C22.7853 0.875 23.2202 1.05511 23.5408 1.37572C23.8614 1.69632 24.0415 2.13116 24.0415 2.58456V2.58456ZM7.62974 9.76471H4.21062V20.7059H7.62974V9.76471ZM7.93746 6.00368C7.93926 5.74505 7.8901 5.4886 7.79279 5.24897C7.69548 5.00934 7.55193 4.79122 7.37032 4.60707C7.18871 4.42292 6.97261 4.27635 6.73435 4.17572C6.4961 4.07509 6.24035 4.02238 5.98172 4.02059H5.92018C5.39423 4.02059 4.88983 4.22952 4.51793 4.60142C4.14602 4.97332 3.93709 5.47773 3.93709 6.00368C3.93709 6.52962 4.14602 7.03403 4.51793 7.40593C4.88983 7.77783 5.39423 7.98676 5.92018 7.98676V7.98676C6.17883 7.99313 6.43619 7.94846 6.67757 7.85533C6.91895 7.76219 7.13961 7.62241 7.32695 7.44396C7.51429 7.26551 7.66463 7.0519 7.76938 6.81533C7.87414 6.57876 7.93125 6.32387 7.93746 6.06522V6.00368ZM20.6224 14.0591C20.6224 10.7699 18.5299 9.49118 16.4511 9.49118C15.7704 9.45709 15.0927 9.60207 14.4856 9.91163C13.8785 10.2212 13.3631 10.6845 12.9909 11.2554H12.8952V9.76471H9.68121V20.7059H13.1003V14.8865C13.0509 14.2905 13.2386 13.6991 13.6228 13.2407C14.0069 12.7824 14.5563 12.4941 15.1518 12.4385H15.2817C16.369 12.4385 17.1759 13.1223 17.1759 14.8455V20.7059H20.595L20.6224 14.0591Z" fill="black"/>
</svg>
